<?xml version="1.0" standalone="no"?>
<!DOCTYPE svg PUBLIC "-//W3C//DTD SVG 20010904//EN"
 "http://www.w3.org/TR/2001/REC-SVG-20010904/DTD/svg10.dtd">
<svg version="1.0" xmlns="http://www.w3.org/2000/svg"
 width="800.000000pt" height="400.000000pt" viewBox="0 0 800.000000 400.000000"
 preserveAspectRatio="xMidYMid meet">

<g transform="translate(0.000000,400.000000) scale(0.100000,-0.100000)"
fill="#000000" stroke="none">
<path d="M1253 2569 l-83 -50 0 -122 0 -123 118 -67 c64 -37 174 -100 245
-141 l127 -75 0 124 0 123 -167 97 c-93 54 -194 113 -226 133 l-58 34 78 45
c93 53 91 52 73 63 -20 13 -14 15 -107 -41z"/>
<path d="M1792 2377 c-8 -9 30 -35 163 -112 96 -54 172 -102 169 -106 -2 -4
-81 -51 -174 -105 l-170 -97 0 -125 0 -124 23 14 c12 8 100 59 195 113 l172
99 0 127 0 126 -52 28 c-29 16 -111 61 -181 102 -71 40 -130 73 -132 73 -1 0
-7 -6 -13 -13z"/>
<path d="M3290 2366 l-55 -11 -3 -382 -2 -383 60 0 60 0 2 268 3 267 96 3
c155 4 157 -2 158 -335 l1 -203 60 0 60 0 -1 243 c0 353 2 350 -229 355 l-149
4 -3 92 -3 92 -55 -10z"/>
<path d="M5212 2363 c-12 -2 -27 -13 -32 -23 -7 -12 -9 -152 -8 -382 l3 -363
62 -3 62 -3 3 141 3 141 118 -141 118 -140 64 0 c36 0 65 3 65 8 -1 4 -61 79
-135 167 l-134 160 72 75 c40 41 97 101 127 133 l54 57 -70 0 -71 0 -98 -112
c-54 -62 -102 -114 -106 -116 -5 -2 -9 89 -9 202 l0 206 -32 -1 c-18 -1 -43
-4 -56 -6z"/>
<path d="M2670 2177 c-21 -8 -42 -25 -55 -47 -18 -32 -20 -51 -20 -235 0 -218
4 -239 58 -279 25 -18 42 -20 220 -21 l192 0 0 30 0 30 -153 5 c-206 7 -194
-8 -190 242 3 164 5 190 21 205 15 15 40 19 160 21 144 4 157 7 157 45 0 16
-15 17 -177 16 -111 0 -191 -5 -213 -12z"/>
<path d="M3981 2177 c-19 -7 -44 -25 -55 -40 -20 -27 -21 -41 -21 -246 0 -238
5 -259 63 -283 15 -6 105 -13 200 -16 l172 -5 0 37 0 36 -138 0 c-168 0 -172
2 -180 110 l-5 70 137 0 c209 0 240 23 240 175 0 96 -19 140 -69 161 -43 18
-294 19 -344 1z m284 -72 c22 -21 25 -33 25 -91 0 -100 -6 -104 -153 -104
l-120 0 5 87 c4 79 7 88 32 110 24 20 38 23 107 23 72 0 82 -3 104 -25z"/>
<path d="M4621 2177 c-19 -7 -44 -25 -55 -40 -20 -27 -21 -41 -21 -235 0 -310
-6 -304 278 -310 l187 -4 0 36 0 36 -144 0 c-130 0 -146 2 -170 21 l-26 20 0
189 c0 248 -10 234 177 238 113 3 140 6 151 19 30 40 20 43 -165 42 -111 0
-191 -5 -212 -12z"/>
<path d="M5830 2176 l-55 -11 -3 -215 c-2 -244 6 -300 51 -334 25 -18 45 -20
237 -24 l210 -4 0 299 0 300 -50 -8 c-27 -4 -54 -11 -60 -14 -6 -4 -10 -100
-10 -256 l0 -249 -101 0 c-104 0 -131 7 -145 37 -4 10 -10 124 -13 254 l-6
235 -55 -10z"/>
<path d="M6440 1780 c0 -225 2 -410 4 -410 28 0 112 23 118 33 4 6 8 51 8 98
l0 86 143 5 c237 9 232 3 232 299 0 305 8 298 -307 298 l-198 1 0 -410z m354
327 c33 -22 39 -68 35 -256 -5 -195 -2 -191 -151 -191 l-108 0 0 236 0 237 99
-5 c69 -3 108 -10 125 -21z"/>
<path d="M1135 2061 l-80 -47 -3 -125 -3 -125 163 -94 c90 -52 224 -129 298
-172 74 -43 138 -78 143 -78 4 0 7 53 7 119 l0 119 -162 94 c-90 52 -218 126
-285 164 -67 38 -122 71 -122 74 -1 3 35 25 79 49 63 35 77 47 69 58 -15 17
-12 18 -104 -36z"/>
</g>
</svg>
